<mxfile host="app.diagrams.net" modified="2024-04-09T20:03:34.905Z" agent="Mozilla/5.0 (Windows NT 10.0; Win64; x64) AppleWebKit/537.36 (KHTML, like Gecko) Chrome/123.0.0.0 Safari/537.36" version="24.0.7" etag="8_13n6nI3x8iJo2fYYrU" type="github">
  <diagram name="PÃ¡gina-1" id="cGEI1n-aYYrwpAjmz2La">
    <mxGraphModel>
      <root>
        <mxCell id="0" />
        <mxCell id="1" parent="0" />
      </root>
    </mxGraphModel>
  </diagram>
</mxfile>
